<?xml version="1.0" encoding="iso-8859-1"?>
<!-- Uploaded to: SVG Repo, www.svgrepo.com, Generator: SVG Repo Mixer Tools -->
<svg version="1.1" id="Layer_1" xmlns="http://www.w3.org/2000/svg" xmlns:xlink="http://www.w3.org/1999/xlink"
	 viewBox="0 0 512.001 512.001" xml:space="preserve">
<path style="fill:#FFB819;" d="M447.999,221.655h-84.215l0,0l-16.712-20.375l16.712-25.377v-29.665
	c0-11.717-9.587-21.304-21.304-21.304H42.803c-11.717,0-21.304,9.587-21.304,21.304v174.034c0,11.717,9.587,21.304,21.304,21.304
	h447.24V263.7C490.043,240.479,471.219,221.655,447.999,221.655z"/>
<g>
	<path style="fill:#333E48;" d="M47.746,345.216c0,4.101-3.355,7.456-7.456,7.456H15.445c-4.101,0-7.456-3.355-7.456-7.456v-19.468
		c0-4.101,3.355-7.456,7.456-7.456H40.29c4.101,0,7.456,3.355,7.456,7.456C47.746,325.747,47.746,345.216,47.746,345.216z"/>
	<path style="fill:#333E48;" d="M504.011,345.216c0,4.101-3.355,7.456-7.456,7.456h-21.618c-4.101,0-7.456-3.355-7.456-7.456
		v-19.468c0-4.101,3.355-7.456,7.456-7.456h21.618c4.101,0,7.456,3.355,7.456,7.456V345.216z"/>
</g>
<path style="opacity:0.2;enable-background:new    ;" d="M428.185,341.576c0-29.707-24.078-53.788-53.786-53.788
	c-29.707,0-53.786,24.081-53.786,53.788H428.185z"/>
<circle style="fill:#333E48;" cx="374.402" cy="341.573" r="45.49"/>
<circle style="fill:#D1D3D3;" cx="374.402" cy="341.573" r="20.913"/>
<path style="opacity:0.2;enable-background:new    ;" d="M175.407,341.576c0-29.707-24.078-53.788-53.786-53.788
	c-29.707,0-53.786,24.081-53.786,53.788H175.407z"/>
<circle style="fill:#333E48;" cx="121.623" cy="341.573" r="45.489"/>
<circle style="fill:#D1D3D3;" cx="121.623" cy="341.573" r="20.913"/>
<g>
	<path style="fill:#00B3E3;" d="M117.221,216.329c0,2.929-2.397,5.326-5.326,5.326H53.072c-2.929,0-5.326-2.397-5.326-5.326v-35.101
		c0-2.929,2.397-5.326,5.326-5.326h58.824c2.929,0,5.326,2.397,5.326,5.326C117.221,181.228,117.221,216.329,117.221,216.329z"/>
	<path style="fill:#00B3E3;" d="M208.545,216.329c0,2.929-2.397,5.326-5.326,5.326h-58.825c-2.929,0-5.326-2.397-5.326-5.326
		v-35.101c0-2.929,2.397-5.326,5.326-5.326h58.825c2.929,0,5.326,2.397,5.326,5.326L208.545,216.329L208.545,216.329z"/>
</g>
<path style="opacity:0.2;enable-background:new    ;" d="M203.219,175.903h-58.825c-2.929,0-5.326,2.397-5.326,5.326v9.054
	c0-2.929,2.397-5.326,5.326-5.326h58.825c2.929,0,5.326,2.397,5.326,5.326v-9.054C208.545,178.3,206.148,175.903,203.219,175.903z"
	/>
<path style="fill:#D68231;" d="M299.871,336.25c0,2.929-2.397,5.326-5.326,5.326h-58.827c-2.929,0-5.326-2.397-5.326-5.326V181.229
	c0-2.929,2.397-5.326,5.326-5.326h58.827c2.929,0,5.326,2.397,5.326,5.326V336.25z"/>
<path style="opacity:0.2;enable-background:new    ;" d="M294.545,175.903h-58.827c-2.929,0-5.326,2.397-5.326,5.326v9.054
	c0-2.929,2.397-5.326,5.326-5.326h58.827c2.929,0,5.326,2.397,5.326,5.326v-9.054C299.871,178.3,297.474,175.903,294.545,175.903z"
	/>
<path style="fill:#00B3E3;" d="M363.785,221.655h-36.741c-2.929,0-5.326-2.397-5.326-5.326v-35.101c0-2.929,2.397-5.326,5.326-5.326
	h36.741V221.655z"/>
<path style="opacity:0.2;enable-background:new    ;" d="M111.895,175.903H53.072c-2.929,0-5.326,2.397-5.326,5.326v9.054
	c0-2.929,2.397-5.326,5.326-5.326h58.824c2.929,0,5.326,2.397,5.326,5.326v-9.054C117.221,178.3,114.825,175.903,111.895,175.903z"
	/>
<path style="opacity:0.2;enable-background:new    ;" d="M327.044,175.903c-2.929,0-5.326,2.397-5.326,5.326v9.054
	c0-2.929,2.397-5.326,5.326-5.326h36.741v-9.054H327.044z"/>
<g>
	<path style="fill:#FFFFFF;" d="M252.804,297.232c-4.413,0-7.989-3.577-7.989-7.989v-28.426c0-4.412,3.576-7.989,7.989-7.989
		c4.413,0,7.989,3.577,7.989,7.989v28.426C260.793,293.656,257.217,297.232,252.804,297.232z"/>
	<path style="fill:#FFFFFF;" d="M277.457,297.232c-4.412,0-7.989-3.577-7.989-7.989v-28.426c0-4.412,3.576-7.989,7.989-7.989
		s7.989,3.577,7.989,7.989v28.426C285.446,293.656,281.87,297.232,277.457,297.232z"/>
	<path style="fill:#FFFFFF;" d="M252.804,237.694c-4.413,0-7.989-3.577-7.989-7.989v-28.426c0-4.412,3.576-7.989,7.989-7.989
		c4.413,0,7.989,3.577,7.989,7.989v28.426C260.793,234.117,257.217,237.694,252.804,237.694z"/>
	<path style="fill:#FFFFFF;" d="M277.457,237.694c-4.412,0-7.989-3.577-7.989-7.989v-28.426c0-4.412,3.576-7.989,7.989-7.989
		s7.989,3.577,7.989,7.989v28.426C285.446,234.117,281.87,237.694,277.457,237.694z"/>
</g>
<rect x="451.904" y="292.404" style="fill:#00B3E3;" width="38.139" height="25.888"/>
<path style="fill:#FFFFFF;" d="M457.943,318.291h-8.773c-2.044,0-3.716-1.671-3.716-3.715v-18.456c0-2.044,1.672-3.715,3.716-3.715
	h8.773V318.291z"/>
<path style="fill:#1E252B;" d="M374.398,312.673c-15.937,0-28.903,12.965-28.903,28.903s12.965,28.904,28.903,28.904
	c15.936,0,28.902-12.967,28.902-28.904S390.335,312.673,374.398,312.673z M374.398,354.502c-7.126,0-12.925-5.799-12.925-12.926
	c0-7.127,5.798-12.925,12.925-12.925c7.126,0,12.924,5.798,12.924,12.925C387.322,348.703,381.526,354.502,374.398,354.502z
	 M111.895,167.915H53.072c-7.341,0-13.315,5.972-13.315,13.315v35.101c0,7.342,5.974,13.315,13.315,13.315h58.824
	c7.342,0,13.315-5.972,13.315-13.315v-35.101C125.21,173.887,119.237,167.915,111.895,167.915z M109.233,213.666H55.735v-29.775
	h53.498C109.233,183.891,109.233,213.666,109.233,213.666z M498.032,310.377V263.7c0-27.588-22.444-50.033-50.033-50.033h-76.226
	v-67.428c0-16.152-13.141-29.293-29.293-29.293H42.803c-16.151,0-29.293,13.14-29.293,29.293v164.198
	C5.906,311.393,0,317.887,0,325.747v19.468c0,8.516,6.929,15.445,15.445,15.445H40.29c7.005,0,12.927-4.692,14.81-11.096h13.642
	c3.868,25.712,26.106,45.49,52.879,45.49s49.011-19.777,52.878-45.49h61.209c0.004,0,0.007,0,0.011,0l0,0h58.827l0,0
	c0.003,0,0.006,0,0.011,0h26.965c3.868,25.712,26.107,45.49,52.879,45.49c26.773,0,49.011-19.777,52.879-45.49h32.849
	c1.883,6.404,7.806,11.096,14.81,11.096h21.618c8.516,0,15.445-6.929,15.445-15.445v-19.468
	C512,317.728,505.857,311.122,498.032,310.377z M29.489,146.238c0-7.342,5.972-13.315,13.315-13.315h299.679
	c7.341,0,13.315,5.972,13.315,13.315v2.009H29.489V146.238z M39.757,344.683H15.978V326.28h23.779
	C39.757,326.28,39.757,344.683,39.757,344.683z M121.621,379.077c-20.677,0-37.5-16.822-37.5-37.501
	c0-20.678,16.822-37.501,37.5-37.501s37.5,16.822,37.5,37.501C159.12,362.254,142.298,379.077,121.621,379.077z M291.882,333.587
	h-53.501V183.892h53.501V333.587z M374.398,379.077c-20.678,0-37.501-16.822-37.501-37.501c0-20.678,16.822-37.501,37.501-37.501
	c20.677,0,37.5,16.822,37.5,37.501C411.898,362.254,395.076,379.077,374.398,379.077z M459.492,333.587h-32.214
	c-3.868-25.712-26.106-45.49-52.879-45.49s-49.012,19.777-52.879,45.49h-13.66v-53.23h55.926c4.412,0,7.989-3.577,7.989-7.989
	s-3.577-7.989-7.989-7.989H307.86v-7.814h55.926c4.412,0,7.989-3.577,7.989-7.989s-3.577-7.989-7.989-7.989H307.86v-59.357
	c0-7.342-5.972-13.315-13.315-13.315h-58.827c-7.342,0-13.315,5.972-13.315,13.315v59.357H47.746c-4.412,0-7.989,3.577-7.989,7.989
	s3.577,7.989,7.989,7.989h174.657v7.814H47.746c-4.412,0-7.989,3.577-7.989,7.989s3.577,7.989,7.989,7.989h174.657v53.23h-47.905
	c-3.868-25.712-26.106-45.49-52.878-45.49c-26.773,0-49.011,19.777-52.879,45.49H55.735v-7.84c0-8.516-6.929-15.445-15.445-15.445
	H29.489V164.224h326.309v3.69h-28.754c-7.342,0-13.315,5.972-13.315,13.315v35.101c0,7.342,5.973,13.315,13.315,13.315h120.956
	c18.778,0,34.055,15.277,34.055,34.055v20.714H449.17c-6.454,0-11.705,5.25-11.705,11.704v18.456
	c0,6.454,5.251,11.704,11.705,11.704h10.323v7.309H459.492z M355.796,183.892v29.775h-26.09v-29.775H355.796z M453.441,310.302
	v-9.91h28.612v9.91H453.441z M496.022,344.683h-20.553V326.28h20.553V344.683z M203.219,167.915h-58.825
	c-7.342,0-13.315,5.972-13.315,13.315v35.101c0,7.342,5.972,13.315,13.315,13.315h58.825c7.342,0,13.315-5.972,13.315-13.315
	v-35.101C216.534,173.887,210.561,167.915,203.219,167.915z M200.556,213.666h-53.499v-29.775h53.499L200.556,213.666
	L200.556,213.666z M121.621,312.673c-15.936,0-28.902,12.965-28.902,28.903s12.965,28.904,28.902,28.904
	c15.937,0,28.903-12.967,28.903-28.904C150.522,325.639,137.558,312.673,121.621,312.673z M121.621,354.502
	c-7.127,0-12.924-5.799-12.924-12.926c0-7.127,5.797-12.925,12.924-12.925c7.126,0,12.925,5.798,12.925,12.925
	C134.546,348.703,128.747,354.502,121.621,354.502z"/>
</svg>

